<?xml version="1.0" encoding="utf-8"?>
<!-- Generator: Adobe Illustrator 24.2.0, SVG Export Plug-In . SVG Version: 6.00 Build 0)  -->
<svg version="1.1" id="Layer_1" xmlns="http://www.w3.org/2000/svg" xmlns:xlink="http://www.w3.org/1999/xlink" x="0px" y="0px"
	 viewBox="0 0 1920 1080" style="enable-background:new 0 0 1920 1080;" xml:space="preserve">
<style type="text/css">
	.st0{fill:#FF0000;}
	.st1{fill:#FF1D25;}
	.st2{font-family:'ArialRoundedMTBold';}
	.st3{font-size:54.4651px;}
	.st4{letter-spacing:-3.03;}
	.st5{fill:#1B1464;}
	.st6{font-size:26.0348px;}
	.st7{letter-spacing:-1.01;}
</style>
<g>
	<path class="st0" d="M872.62,449.73c0.17,0,0.48,0.03,0.71,0.27l37.05,36.49c0.05,0.05,0.2,0.2,0.2,0.46c0,0.26-0.15,0.41-0.2,0.45
		l-15.73,15.21c-0.23,0.23-0.54,0.26-0.7,0.26c-0.17,0-0.48-0.03-0.71-0.27l-13.77-13.57c-1.88-1.85-4.38-2.88-7.04-2.88
		c-2.62,0-5.1,1-6.98,2.81l-13.9,13.44c-0.23,0.23-0.54,0.26-0.7,0.26c-0.17,0-0.48-0.03-0.71-0.27l-15.59-15.36
		c-0.05-0.05-0.2-0.2-0.2-0.46c0-0.26,0.15-0.41,0.2-0.45l37.38-36.15C872.15,449.76,872.46,449.73,872.62,449.73 M872.62,442.73
		c-2.02,0-4.03,0.74-5.57,2.23l-37.38,36.15c-3.09,2.99-3.12,7.91-0.05,10.93l15.59,15.36c1.54,1.52,3.58,2.28,5.63,2.28
		c2.02,0,4.03-0.74,5.57-2.23l13.9-13.44c0.58-0.56,1.35-0.84,2.11-0.84c0.77,0,1.55,0.29,2.13,0.86l13.77,13.57
		c1.54,1.52,3.58,2.28,5.63,2.28c2.02,0,4.03-0.74,5.57-2.23l15.73-15.21c3.09-2.99,3.12-7.91,0.05-10.93l-37.05-36.49
		C876.71,443.49,874.67,442.73,872.62,442.73L872.62,442.73z"/>
</g>
<g>
	<path class="st0" d="M872.5,472.84c1.16,0,2.23,0.43,3.02,1.2l35.23,34.7l-16.91,16.35l-13.47-13.26
		c-2.17-2.13-5.03-3.31-8.07-3.31c-3,0-5.83,1.15-7.99,3.24l-13.58,13.14l-16.76-16.51l35.54-34.37
		C870.29,473.26,871.35,472.84,872.5,472.84 M872.5,465.84c-2.84,0-5.69,1.05-7.85,3.14l-36.98,35.76
		c-2.05,1.98-2.06,5.23-0.03,7.23l19.32,19.03c1.03,1.02,2.4,1.53,3.77,1.53c1.35,0,2.7-0.5,3.73-1.49l14.73-14.25
		c0.87-0.85,2-1.27,3.13-1.27c1.14,0,2.28,0.43,3.16,1.3l14.6,14.38c1.03,1.02,2.4,1.53,3.77,1.53c1.35,0,2.7-0.5,3.73-1.49
		l19.49-18.85c2.05-1.98,2.06-5.23,0.03-7.23l-36.65-36.1C878.25,466.92,875.38,465.84,872.5,465.84L872.5,465.84z"/>
</g>
<g>
	<path class="st0" d="M892.92,459.6c0.28-0.15,0.6-0.24,0.94-0.24l1.6,0.08c0.52,0.02,1,0.25,1.34,0.62
		c0.22,0.24,0.47,0.64,0.44,1.21l-0.13,2.51L892.92,459.6z"/>
	<path class="st0" d="M893.86,455.86c-2.63,0-4.85,1.86-5.29,4.36l10.97,10.92c0.48-0.74,0.78-1.6,0.83-2.54l0.36-7.16
		c0.15-2.89-2.14-5.35-5.1-5.5l-1.5-0.07C894.04,455.86,893.95,455.86,893.86,455.86L893.86,455.86z"/>
</g>
<text transform="matrix(0.9898 0 0 1 932.5942 489.8662)"><tspan x="0" y="0" class="st1 st2 st3 st4">Trogiare</tspan><tspan x="0" y="36.99" class="st5 st2 st6 st7">Real estate</tspan></text>
</svg>
