<?xml version="1.0" encoding="utf-8"?>
<!-- Generator: Adobe Illustrator 24.2.0, SVG Export Plug-In . SVG Version: 6.00 Build 0)  -->
<svg version="1.1" id="Layer_1" xmlns="http://www.w3.org/2000/svg" xmlns:xlink="http://www.w3.org/1999/xlink" x="0px" y="0px"
	 viewBox="0 0 1920 1080" style="enable-background:new 0 0 1920 1080;" xml:space="preserve">
<style type="text/css">
	.st0{fill:#FF0000;}
	.st1{fill:#FF1D25;}
	.st2{font-family:'ArialRoundedMTBold';}
	.st3{font-size:102px;}
	.st4{letter-spacing:-6;}
	.st5{fill:#1B1464;}
	.st6{font-size:50px;}
	.st7{letter-spacing:-3;}
</style>
<g>
	<path class="st0" d="M616.51,108c0.42,0,1.21,0.09,1.84,0.71l71.88,70.08c0.35,0.34,0.53,0.73,0.53,1.15c0,0.42-0.18,0.8-0.54,1.14
		l-30.52,29.21c-0.63,0.6-1.41,0.69-1.82,0.69c-0.42,0-1.21-0.09-1.84-0.71l-24.97-24.35c-4.01-3.91-9.33-6.07-14.98-6.07
		c-5.57,0-10.84,2.11-14.83,5.93l-25.19,24.12c-0.63,0.6-1.41,0.69-1.82,0.69c-0.42,0-1.21-0.09-1.84-0.71l-30.25-29.49
		c-0.35-0.34-0.53-0.73-0.53-1.15c0-0.42,0.18-0.8,0.54-1.14l72.52-69.42C615.32,108.09,616.1,108,616.51,108 M616.51,95
		c-3.91,0-7.82,1.43-10.81,4.3l-72.52,69.42c-6.03,5.77-6.07,15.17-0.1,20.99l30.25,29.49c3,2.93,6.96,4.4,10.92,4.4
		c3.91,0,7.82-1.43,10.81-4.3l25.19-24.12c1.62-1.55,3.73-2.32,5.85-2.32c2.14,0,4.28,0.79,5.9,2.38l24.97,24.35
		c3,2.93,6.96,4.4,10.92,4.4c3.91,0,7.82-1.43,10.81-4.3l30.52-29.21c6.03-5.77,6.07-15.17,0.1-20.99L627.43,99.4
		C624.42,96.47,620.47,95,616.51,95L616.51,95z"/>
</g>
<g>
	<path class="st0" d="M615.31,153.86c0.42,0,1.21,0.09,1.84,0.71l73.06,71.23l-33.55,32.11l-28.59-27.87
		c-3.53-3.44-8.21-5.34-13.17-5.34c-4.89,0-9.53,1.85-13.04,5.22l-28.84,27.61l-33.25-32.42l73.71-70.56
		C614.11,153.95,614.89,153.86,615.31,153.86 M615.31,140.86c-3.91,0-7.82,1.43-10.81,4.3l-74.94,71.74
		c-4.69,4.49-4.72,11.8-0.07,16.33l35.05,34.17c2.34,2.28,5.42,3.42,8.49,3.42c3.04,0,6.08-1.11,8.41-3.34l29.42-28.17
		c1.12-1.08,2.59-1.61,4.06-1.61c1.48,0,2.97,0.55,4.1,1.65l29.16,28.43c2.34,2.28,5.42,3.42,8.49,3.42c3.04,0,6.08-1.11,8.41-3.34
		l35.36-33.85c4.69-4.49,4.72-11.8,0.07-16.33l-74.28-72.42C623.22,142.33,619.26,140.86,615.31,140.86L615.31,140.86z"/>
</g>
<g>
	<path class="st0" d="M657.83,127.38c0.64-0.41,1.42-0.65,2.23-0.65c0.07,0,0.14,0,0.21,0.01l2.91,0.14
		c1.11,0.05,2.11,0.52,2.83,1.3c0.44,0.49,0.95,1.3,0.89,2.43l-0.28,5.44L657.83,127.38z"/>
	<path class="st0" d="M660.06,120.23c-5.1,0-9.42,3.58-10.26,8.37l21.28,20.97c0.93-1.42,1.51-3.08,1.6-4.88l0.7-13.75
		c0.28-5.56-4.15-10.28-9.9-10.56l-2.91-0.14C660.41,120.23,660.24,120.23,660.06,120.23L660.06,120.23z"/>
</g>
<text transform="matrix(1 0 0 1 723.5034 199.5923)"><tspan x="0" y="0" class="st1 st2 st3 st4">Trogiare</tspan><tspan x="0" y="68" class="st5 st2 st6 st7">Real estate</tspan></text>
</svg>
