<?xml version="1.0" encoding="utf-8"?>
<!-- Generator: Adobe Illustrator 24.2.0, SVG Export Plug-In . SVG Version: 6.00 Build 0)  -->
<svg version="1.1" id="Layer_1" xmlns="http://www.w3.org/2000/svg" xmlns:xlink="http://www.w3.org/1999/xlink" x="0px" y="0px"
	 viewBox="0 0 1920 1080" style="enable-background:new 0 0 1920 1080;" xml:space="preserve">
<style type="text/css">
	.st0{fill:#FF0000;}
	.st1{fill:#FF1D25;}
	.st2{font-family:'ArialRoundedMTBold';}
	.st3{font-size:181.5504px;}
	.st4{letter-spacing:-11.79;}
	.st5{fill:#1B1464;}
	.st6{font-size:86.7826px;}
	.st7{letter-spacing:-5.05;}
</style>
<g>
	<path class="st0" d="M573.13,319c4.1,0,7.97,1.33,10.61,3.66l148.19,130.45c1.99,1.76,3.04,3.82,3.03,5.97
		c-0.01,2.16-1.08,4.22-3.11,5.97l-62.91,54.37c-2.64,2.28-6.47,3.58-10.51,3.58c-4.1,0-7.97-1.33-10.61-3.66l-55.1-48.5
		c-5.55-4.89-12.8-7.58-20.42-7.58c-7.51,0-14.69,2.63-20.21,7.4l-55.59,48.04c-2.64,2.28-6.47,3.58-10.51,3.58
		c-4.1,0-7.97-1.33-10.61-3.66l-62.36-54.89c-1.99-1.76-3.04-3.82-3.03-5.97c0.01-2.16,1.08-4.22,3.11-5.97l149.51-129.22
		C565.25,320.31,569.09,319,573.13,319 M573.13,301c-8.07,0-16.14,2.65-22.28,7.97L401.34,438.19
		c-12.37,10.69-12.46,28.27-0.2,39.07l62.36,54.89c6.17,5.43,14.34,8.15,22.51,8.15c8.07,0,16.14-2.65,22.28-7.97l55.59-48.04
		c2.33-2.01,5.38-3.02,8.44-3.02c3.09,0,6.19,1.03,8.52,3.09l55.1,48.5c6.17,5.43,14.34,8.15,22.51,8.15
		c8.07,0,16.14-2.65,22.28-7.97l62.91-54.37c12.37-10.69,12.46-28.27,0.2-39.07L595.64,309.15C589.47,303.72,581.3,301,573.13,301
		L573.13,301z"/>
</g>
<g>
	<path class="st0" d="M572.62,401.62c7.55,0,14.77,2.55,19.83,7l145.87,128.41l-77.24,66.75c-0.68,0.59-1.88,0.95-3.14,0.95
		c-1.28,0-2.49-0.37-3.17-0.97l-58.41-51.42c-6.68-5.88-15.39-9.12-24.51-9.12c-9,0-17.62,3.17-24.27,8.91l-58.93,50.93
		c-0.68,0.59-1.88,0.95-3.14,0.95c-1.28,0-2.49-0.37-3.17-0.97l-76.54-67.38l147.18-127.21
		C558.02,404.12,565.18,401.62,572.62,401.62 M572.62,383.62c-11.37,0-22.74,3.74-31.41,11.23L393.3,522.69
		c-8.18,7.07-8.24,18.7-0.13,25.84l77.28,68.03c4.13,3.63,9.6,5.45,15.06,5.45c5.4,0,10.8-1.78,14.91-5.33l58.93-50.93
		c3.5-3.02,8-4.53,12.5-4.53c4.56,0,9.11,1.55,12.62,4.64l58.41,51.42c4.13,3.63,9.6,5.45,15.06,5.45c5.4,0,10.8-1.78,14.91-5.33
		l77.97-67.39c8.18-7.07,8.24-18.7,0.13-25.84L604.34,395.11C595.65,387.45,584.14,383.62,572.62,383.62L572.62,383.62z"/>
</g>
<g>
	<path class="st0" d="M647.85,361.16c2.28-2.57,6.07-4.24,10.24-4.24c0.23,0,0.46,0,0.69,0.02l5.99,0.26
		c3.81,0.17,7.29,1.68,9.53,4.17c1.12,1.24,2.43,3.29,2.28,5.99l-1.04,18.44L647.85,361.16z"/>
	<path class="st0" d="M658.09,347.92c-10.52,0-19.41,6.66-21.15,15.58l43.88,39.03c1.92-2.64,3.11-5.73,3.3-9.08l1.45-25.59
		c0.59-10.34-8.55-19.14-20.41-19.65l-5.99-0.26C658.81,347.93,658.45,347.92,658.09,347.92L658.09,347.92z"/>
</g>
<text transform="matrix(1.1878 0 0 1 800.0146 476.8477)"><tspan x="0" y="0" class="st1 st2 st3 st4">Trogiare</tspan><tspan x="0" y="115" class="st5 st2 st6 st7">Real estate</tspan></text>
</svg>
